<svg xmlns="http://www.w3.org/2000/svg" xmlns:xlink="http://www.w3.org/1999/xlink" width="500" zoomAndPan="magnify" viewBox="0 0 375 187.499995" height="250" preserveAspectRatio="xMidYMid meet" version="1.0"><defs><g/></defs><g fill="#ffffff" fill-opacity="1"><g transform="translate(25.809667, 106.656654)"><g><path d="M 60.125 -26.1875 C 62.050781 -26.625 63.976562 -27.300781 65.90625 -28.21875 C 67.84375 -29.132812 69.90625 -29.59375 72.09375 -29.59375 C 72.269531 -29.59375 72.46875 -29.570312 72.6875 -29.53125 C 72.90625 -29.488281 73.101562 -29.46875 73.28125 -29.46875 C 77.132812 -29.207031 80.179688 -28 82.421875 -25.84375 C 84.660156 -23.695312 86.28125 -20.976562 87.28125 -17.6875 C 88.289062 -14.40625 88.925781 -10.878906 89.1875 -7.109375 C 89.457031 -3.335938 89.59375 0.347656 89.59375 3.953125 C 90.382812 3.773438 91.347656 3.269531 92.484375 2.4375 C 93.628906 1.601562 94.769531 0.707031 95.90625 -0.25 C 97.050781 -1.21875 97.929688 -1.925781 98.546875 -2.375 L 104.859375 -7.625 C 106.523438 -9.03125 108.472656 -10.875 110.703125 -13.15625 C 112.941406 -15.4375 114.851562 -17.410156 116.4375 -19.078125 C 117.664062 -20.390625 118.5 -21.414062 118.9375 -22.15625 C 119.375 -22.90625 120.425781 -23.28125 122.09375 -23.28125 C 122.269531 -23.28125 122.421875 -23.28125 122.546875 -23.28125 C 122.679688 -23.28125 122.789062 -23.28125 122.875 -23.28125 C 123.144531 -22.226562 123.28125 -21.503906 123.28125 -21.109375 C 123.28125 -20.722656 122.925781 -20.085938 122.21875 -19.203125 C 121.78125 -18.585938 121.382812 -18.039062 121.03125 -17.5625 C 120.6875 -17.082031 120.207031 -16.625 119.59375 -16.1875 C 119.15625 -15.570312 118.800781 -15.046875 118.53125 -14.609375 C 118.269531 -14.171875 117.789062 -13.6875 117.09375 -13.15625 C 116.382812 -12.1875 115.550781 -11.351562 114.59375 -10.65625 L 103.546875 -0.390625 C 102.660156 0.484375 101.710938 1.3125 100.703125 2.09375 C 99.703125 2.882812 98.675781 3.675781 97.625 4.46875 C 95.25 6.226562 93.46875 7.476562 92.28125 8.21875 C 91.101562 8.96875 90.269531 9.582031 89.78125 10.0625 C 89.300781 10.539062 88.992188 11.195312 88.859375 12.03125 C 88.734375 12.863281 88.453125 14.25 88.015625 16.1875 C 86.347656 25.476562 83.429688 34.351562 79.265625 42.8125 C 75.097656 51.28125 69.640625 58.894531 62.890625 65.65625 C 58.066406 70.476562 53.285156 73.960938 48.546875 76.109375 C 43.804688 78.253906 39.460938 79.328125 35.515625 79.328125 C 31.222656 79.328125 27.648438 78.207031 24.796875 75.96875 C 21.953125 73.738281 20.242188 70.691406 19.671875 66.828125 C 19.097656 62.972656 20.039062 58.632812 22.5 53.8125 C 24.25 50.476562 26.4375 47.34375 29.0625 44.40625 C 31.695312 41.46875 34.460938 38.898438 37.359375 36.703125 C 43.941406 31.523438 50.410156 27.140625 56.765625 23.546875 C 63.128906 19.953125 69.816406 16.140625 76.828125 12.109375 C 78.847656 10.960938 80.382812 10.101562 81.4375 9.53125 C 82.488281 8.96875 83.191406 8.113281 83.546875 6.96875 L 83.546875 6.578125 C 83.984375 4.035156 84.203125 1.035156 84.203125 -2.421875 C 84.203125 -5.890625 83.828125 -9.289062 83.078125 -12.625 C 82.335938 -15.957031 81.085938 -18.742188 79.328125 -20.984375 C 77.578125 -23.222656 75.164062 -24.34375 72.09375 -24.34375 C 70.6875 -24.34375 69.195312 -24.078125 67.625 -23.546875 C 64.03125 -22.410156 61.289062 -21.226562 59.40625 -20 C 57.519531 -18.769531 55.9375 -17.5625 54.65625 -16.375 C 53.382812 -15.195312 51.742188 -13.945312 49.734375 -12.625 C 49.460938 -12.539062 49.257812 -12.410156 49.125 -12.234375 C 49 -12.054688 48.71875 -11.96875 48.28125 -11.96875 C 48.195312 -11.96875 48.066406 -11.988281 47.890625 -12.03125 C 47.710938 -12.082031 47.535156 -12.109375 47.359375 -12.109375 C 45.953125 -12.367188 45.269531 -13.003906 45.3125 -14.015625 C 45.363281 -15.023438 45.757812 -16.097656 46.5 -17.234375 C 47.25 -18.367188 47.84375 -19.203125 48.28125 -19.734375 C 48.71875 -20.429688 49.132812 -21.039062 49.53125 -21.5625 C 49.925781 -22.09375 50.34375 -22.664062 50.78125 -23.28125 C 54.289062 -28.375 57.800781 -33.332031 61.3125 -38.15625 C 64.820312 -42.976562 68.15625 -48.066406 71.3125 -53.421875 C 72.363281 -55.253906 73.585938 -57.75 74.984375 -60.90625 C 76.390625 -64.070312 77.726562 -67.515625 79 -71.234375 C 80.269531 -74.960938 81.234375 -78.671875 81.890625 -82.359375 C 82.554688 -86.046875 82.582031 -89.378906 81.96875 -92.359375 C 81.613281 -94.109375 81.109375 -95.332031 80.453125 -96.03125 C 79.796875 -96.738281 79.023438 -97.09375 78.140625 -97.09375 C 77.085938 -97.09375 75.90625 -96.675781 74.59375 -95.84375 C 73.28125 -95.007812 72.03125 -94.039062 70.84375 -92.9375 C 69.65625 -91.84375 68.671875 -90.90625 67.890625 -90.125 C 64.203125 -86.4375 60.671875 -81.914062 57.296875 -76.5625 C 53.921875 -71.21875 50.785156 -65.429688 47.890625 -59.203125 C 44.992188 -52.972656 42.316406 -46.59375 39.859375 -40.0625 C 37.398438 -33.53125 35.207031 -27.148438 33.28125 -20.921875 C 31.351562 -14.691406 29.734375 -8.988281 28.421875 -3.8125 C 27.546875 -0.394531 26.664062 2.910156 25.78125 6.109375 C 24.90625 9.316406 24.117188 12.71875 23.421875 16.3125 L 20.921875 33.015625 C 20.660156 34.160156 20.394531 34.90625 20.125 35.25 C 19.863281 35.601562 19.25 36 18.28125 36.4375 C 16.613281 36.09375 15.757812 35.4375 15.71875 34.46875 C 15.675781 33.5 15.695312 32.179688 15.78125 30.515625 L 18.28125 5.78125 C 19.25 -5.351562 20.5 -16.335938 22.03125 -27.171875 C 23.570312 -38.003906 24.910156 -48.898438 26.046875 -59.859375 C 26.484375 -62.578125 26.851562 -65.335938 27.15625 -68.140625 C 27.46875 -70.953125 27.625 -73.71875 27.625 -76.4375 C 27.625 -77.84375 27.664062 -79.441406 27.75 -81.234375 C 27.84375 -83.035156 27.800781 -84.550781 27.625 -85.78125 C 27.363281 -87.269531 27.125 -88.5625 26.90625 -89.65625 C 26.6875 -90.75 26.398438 -91.910156 26.046875 -93.140625 C 24.640625 -93.054688 23.429688 -92.289062 22.421875 -90.84375 C 21.421875 -89.394531 20.566406 -88.054688 19.859375 -86.828125 C 16.179688 -81.304688 13.023438 -75.144531 10.390625 -68.34375 C 7.765625 -61.550781 5.96875 -54.773438 5 -48.015625 C 4.644531 -45.648438 4.421875 -42.929688 4.328125 -39.859375 C 4.242188 -36.796875 4.554688 -34.207031 5.265625 -32.09375 C 5.785156 -30.78125 6.394531 -29.96875 7.09375 -29.65625 C 7.800781 -29.351562 8.484375 -29.203125 9.140625 -29.203125 C 9.796875 -29.203125 10.273438 -29.023438 10.578125 -28.671875 C 10.890625 -28.328125 10.914062 -27.5 10.65625 -26.1875 C 9.519531 -25.914062 8.425781 -25.78125 7.375 -25.78125 C 5.96875 -25.78125 4.847656 -26.109375 4.015625 -26.765625 C 3.179688 -27.429688 2.410156 -28.421875 1.703125 -29.734375 C 0.566406 -32.273438 0 -35.054688 0 -38.078125 C 0 -41.109375 0.175781 -43.984375 0.53125 -46.703125 C 0.96875 -51.085938 1.820312 -55.425781 3.09375 -59.71875 C 4.363281 -64.019531 5.742188 -68.191406 7.234375 -72.234375 L 11.3125 -81.171875 C 11.75 -82.140625 12.472656 -83.585938 13.484375 -85.515625 C 14.492188 -87.441406 15.695312 -89.414062 17.09375 -91.4375 C 18.5 -93.457031 19.96875 -95.164062 21.5 -96.5625 C 23.039062 -97.96875 24.601562 -98.671875 26.1875 -98.671875 C 27.675781 -98.671875 28.988281 -97.925781 30.125 -96.4375 C 31.613281 -94.59375 32.597656 -92.398438 33.078125 -89.859375 C 33.566406 -87.316406 33.789062 -84.6875 33.75 -81.96875 C 33.707031 -79.25 33.6875 -76.703125 33.6875 -74.328125 C 33.6875 -72.140625 33.570312 -70.144531 33.34375 -68.34375 C 33.125 -66.550781 32.929688 -64.597656 32.765625 -62.484375 C 32.585938 -58.546875 32.234375 -54.664062 31.703125 -50.84375 C 31.179688 -47.03125 30.613281 -43.148438 30 -39.203125 L 28.015625 -22.234375 C 27.847656 -21.097656 27.675781 -20.113281 27.5 -19.28125 C 27.320312 -18.445312 27.234375 -17.5 27.234375 -16.4375 C 27.847656 -17.226562 28.285156 -18.191406 28.546875 -19.328125 C 28.804688 -20.472656 29.070312 -21.484375 29.34375 -22.359375 L 31.1875 -28.28125 C 33.457031 -35.820312 36.191406 -43.363281 39.390625 -50.90625 C 42.597656 -58.457031 46.046875 -65.648438 49.734375 -72.484375 C 51.128906 -74.765625 52.921875 -77.570312 55.109375 -80.90625 C 57.304688 -84.238281 59.742188 -87.523438 62.421875 -90.765625 C 65.097656 -94.015625 67.835938 -96.710938 70.640625 -98.859375 C 73.453125 -101.015625 76.175781 -102.09375 78.8125 -102.09375 C 80.914062 -102.09375 82.753906 -101.238281 84.328125 -99.53125 C 85.910156 -97.820312 87.007812 -95.210938 87.625 -91.703125 C 88.238281 -88.015625 88.171875 -84.109375 87.421875 -79.984375 C 86.679688 -75.867188 85.519531 -71.703125 83.9375 -67.484375 C 82.351562 -63.273438 80.570312 -59.21875 78.59375 -55.3125 C 76.625 -51.414062 74.675781 -47.890625 72.75 -44.734375 C 72.050781 -43.679688 71.085938 -42.253906 69.859375 -40.453125 C 68.628906 -38.660156 67.332031 -36.796875 65.96875 -34.859375 C 64.613281 -32.929688 63.390625 -31.175781 62.296875 -29.59375 C 61.203125 -28.019531 60.476562 -26.882812 60.125 -26.1875 Z M 35.265625 74.859375 C 37.191406 74.859375 39.160156 74.503906 41.171875 73.796875 C 43.191406 73.097656 44.859375 72.441406 46.171875 71.828125 C 51.171875 69.285156 55.515625 66.109375 59.203125 62.296875 C 62.890625 58.484375 66.132812 54.25 68.9375 49.59375 C 71.75 44.945312 74.25 40.171875 76.4375 35.265625 C 76.875 34.296875 77.421875 32.890625 78.078125 31.046875 C 78.734375 29.203125 79.390625 27.207031 80.046875 25.0625 C 80.710938 22.914062 81.265625 20.921875 81.703125 19.078125 C 82.140625 17.234375 82.359375 15.785156 82.359375 14.734375 L 52.234375 31.96875 L 40.65625 40.390625 C 39.164062 41.523438 37.410156 43.078125 35.390625 45.046875 C 33.367188 47.023438 31.742188 48.804688 30.515625 50.390625 C 27.015625 54.953125 25.019531 59.070312 24.53125 62.75 C 24.050781 66.4375 24.796875 69.375 26.765625 71.5625 C 28.742188 73.757812 31.578125 74.859375 35.265625 74.859375 Z M 35.265625 74.859375 "/></g></g></g><g fill="#ffffff" fill-opacity="1"><g transform="translate(143.551741, 106.656654)"><g><path d="M 6.578125 -3.03125 C 7.890625 -3.375 9.070312 -4.53125 10.125 -6.5 C 11.175781 -8.476562 11.921875 -10.738281 12.359375 -13.28125 C 12.804688 -15.832031 12.914062 -18.179688 12.6875 -20.328125 C 12.46875 -22.472656 11.789062 -23.941406 10.65625 -24.734375 C 10.394531 -23.765625 9.910156 -22.378906 9.203125 -20.578125 C 8.503906 -18.785156 7.828125 -16.816406 7.171875 -14.671875 C 6.515625 -12.523438 6.078125 -10.421875 5.859375 -8.359375 C 5.640625 -6.296875 5.878906 -4.519531 6.578125 -3.03125 Z M 0 -7.5 C 0 -8.632812 0.238281 -10.320312 0.71875 -12.5625 C 1.207031 -14.800781 1.890625 -17.210938 2.765625 -19.796875 C 3.640625 -22.390625 4.625 -24.847656 5.71875 -27.171875 C 6.820312 -29.492188 8.007812 -31.398438 9.28125 -32.890625 C 10.550781 -34.378906 11.84375 -35.125 13.15625 -35.125 C 14.03125 -35.125 14.644531 -34.726562 15 -33.9375 C 15.351562 -33.15625 15.441406 -32.5 15.265625 -31.96875 C 15.085938 -31.53125 14.753906 -31.09375 14.265625 -30.65625 C 13.785156 -30.21875 13.375 -29.734375 13.03125 -29.203125 C 13.195312 -28.585938 13.628906 -27.90625 14.328125 -27.15625 C 15.035156 -26.414062 15.738281 -25.429688 16.4375 -24.203125 C 17.144531 -22.972656 17.609375 -21.304688 17.828125 -19.203125 C 18.046875 -17.097656 17.804688 -14.335938 17.109375 -10.921875 C 16.140625 -6.359375 14.601562 -2.9375 12.5 -0.65625 C 10.394531 1.625 8.332031 2.765625 6.3125 2.765625 C 4.644531 2.765625 3.175781 1.90625 1.90625 0.1875 C 0.632812 -1.519531 0 -4.082031 0 -7.5 Z M 0 -7.5 "/></g></g></g><g fill="#ffffff" fill-opacity="1"><g transform="translate(166.705492, 106.656654)"><g><path d="M 6.578125 -3.03125 C 7.890625 -3.375 9.070312 -4.53125 10.125 -6.5 C 11.175781 -8.476562 11.921875 -10.738281 12.359375 -13.28125 C 12.804688 -15.832031 12.914062 -18.179688 12.6875 -20.328125 C 12.46875 -22.472656 11.789062 -23.941406 10.65625 -24.734375 C 10.394531 -23.765625 9.910156 -22.378906 9.203125 -20.578125 C 8.503906 -18.785156 7.828125 -16.816406 7.171875 -14.671875 C 6.515625 -12.523438 6.078125 -10.421875 5.859375 -8.359375 C 5.640625 -6.296875 5.878906 -4.519531 6.578125 -3.03125 Z M 0 -7.5 C 0 -8.632812 0.238281 -10.320312 0.71875 -12.5625 C 1.207031 -14.800781 1.890625 -17.210938 2.765625 -19.796875 C 3.640625 -22.390625 4.625 -24.847656 5.71875 -27.171875 C 6.820312 -29.492188 8.007812 -31.398438 9.28125 -32.890625 C 10.550781 -34.378906 11.84375 -35.125 13.15625 -35.125 C 14.03125 -35.125 14.644531 -34.726562 15 -33.9375 C 15.351562 -33.15625 15.441406 -32.5 15.265625 -31.96875 C 15.085938 -31.53125 14.753906 -31.09375 14.265625 -30.65625 C 13.785156 -30.21875 13.375 -29.734375 13.03125 -29.203125 C 13.195312 -28.585938 13.628906 -27.90625 14.328125 -27.15625 C 15.035156 -26.414062 15.738281 -25.429688 16.4375 -24.203125 C 17.144531 -22.972656 17.609375 -21.304688 17.828125 -19.203125 C 18.046875 -17.097656 17.804688 -14.335938 17.109375 -10.921875 C 16.140625 -6.359375 14.601562 -2.9375 12.5 -0.65625 C 10.394531 1.625 8.332031 2.765625 6.3125 2.765625 C 4.644531 2.765625 3.175781 1.90625 1.90625 0.1875 C 0.632812 -1.519531 0 -4.082031 0 -7.5 Z M 0 -7.5 "/></g></g></g><g fill="#ffffff" fill-opacity="1"><g transform="translate(189.859243, 106.656654)"><g><path d="M 0 -10 C 0 -16.3125 0.148438 -22.625 0.453125 -28.9375 C 0.765625 -35.257812 1.179688 -41.359375 1.703125 -47.234375 C 1.796875 -47.847656 1.972656 -49.296875 2.234375 -51.578125 C 2.492188 -53.859375 2.84375 -56.507812 3.28125 -59.53125 C 3.726562 -62.5625 4.253906 -65.519531 4.859375 -68.40625 C 5.472656 -71.300781 6.175781 -73.710938 6.96875 -75.640625 C 7.757812 -77.578125 8.59375 -78.546875 9.46875 -78.546875 C 11.226562 -78.546875 12.238281 -78.082031 12.5 -77.15625 C 12.757812 -76.238281 12.671875 -74.988281 12.234375 -73.40625 C 11.796875 -71.832031 11.398438 -70.035156 11.046875 -68.015625 C 9.910156 -61.523438 8.878906 -54.507812 7.953125 -46.96875 C 7.035156 -39.425781 6.332031 -31.925781 5.84375 -24.46875 C 5.363281 -17.007812 5.125 -10.171875 5.125 -3.953125 C 5.300781 -4.117188 5.828125 -5.054688 6.703125 -6.765625 C 7.585938 -8.484375 8.707031 -10.65625 10.0625 -13.28125 C 11.425781 -15.914062 12.894531 -18.703125 14.46875 -21.640625 C 16.050781 -24.578125 17.628906 -27.335938 19.203125 -29.921875 C 20.785156 -32.515625 22.210938 -34.617188 23.484375 -36.234375 C 24.753906 -37.859375 25.738281 -38.671875 26.4375 -38.671875 C 28.375 -38.671875 29.234375 -38.210938 29.015625 -37.296875 C 28.796875 -36.378906 28.070312 -35.128906 26.84375 -33.546875 C 25.613281 -31.972656 24.335938 -30.085938 23.015625 -27.890625 C 22.671875 -27.367188 22.34375 -26.863281 22.03125 -26.375 C 21.726562 -25.894531 21.398438 -25.390625 21.046875 -24.859375 C 20.253906 -23.546875 19.726562 -22.515625 19.46875 -21.765625 C 19.207031 -21.023438 19.097656 -20.101562 19.140625 -19 C 19.179688 -17.90625 19.335938 -16.085938 19.609375 -13.546875 C 19.773438 -11.703125 20.144531 -9.351562 20.71875 -6.5 C 21.289062 -3.65625 21.96875 -0.8125 22.75 2.03125 C 23.539062 4.882812 24.242188 7.191406 24.859375 8.953125 C 25.566406 10.617188 26.179688 11.84375 26.703125 12.625 C 27.234375 13.414062 27.585938 14.25 27.765625 15.125 C 27.410156 15.476562 27.054688 15.851562 26.703125 16.25 C 26.359375 16.644531 25.921875 16.84375 25.390625 16.84375 C 25.210938 16.84375 24.863281 16.753906 24.34375 16.578125 C 23.289062 16.046875 22.390625 15.125 21.640625 13.8125 C 20.898438 12.5 20.285156 11.097656 19.796875 9.609375 C 19.316406 8.117188 18.898438 6.84375 18.546875 5.78125 C 17.585938 2.894531 16.800781 -0.0546875 16.1875 -3.078125 C 15.570312 -6.109375 14.910156 -9.117188 14.203125 -12.109375 L 8.421875 0.53125 C 7.804688 2.457031 7.253906 4.453125 6.765625 6.515625 C 6.285156 8.578125 5.757812 10.304688 5.1875 11.703125 C 4.625 13.109375 3.90625 13.8125 3.03125 13.8125 C 1.882812 13.8125 1.15625 13.394531 0.84375 12.5625 C 0.539062 11.726562 0.410156 10.695312 0.453125 9.46875 C 0.503906 8.238281 0.484375 7.097656 0.390625 6.046875 C 0.304688 5.085938 0.21875 4.34375 0.125 3.8125 C 0.0390625 3.289062 0 2.414062 0 1.1875 Z M 0 -10 "/></g></g></g><g fill="#ffffff" fill-opacity="1"><g transform="translate(219.722318, 106.656654)"><g><path d="M 10.921875 0.53125 C 9.160156 0.53125 7.597656 -0.0351562 6.234375 -1.171875 C 4.878906 -2.316406 3.851562 -3.503906 3.15625 -4.734375 C 1.582031 -7.710938 0.679688 -11.238281 0.453125 -15.3125 C 0.234375 -19.394531 0.476562 -23.101562 1.1875 -26.4375 C 1.363281 -27.40625 1.601562 -28.566406 1.90625 -29.921875 C 2.21875 -31.285156 2.675781 -32.492188 3.28125 -33.546875 C 3.894531 -34.597656 4.644531 -35.125 5.53125 -35.125 C 7.539062 -35.125 8.523438 -34.441406 8.484375 -33.078125 C 8.441406 -31.722656 8.066406 -29.617188 7.359375 -26.765625 C 6.660156 -23.921875 6.3125 -20.257812 6.3125 -15.78125 C 6.3125 -14.46875 6.488281 -12.890625 6.84375 -11.046875 C 7.195312 -9.203125 7.742188 -7.578125 8.484375 -6.171875 C 9.234375 -4.773438 10.175781 -4.078125 11.3125 -4.078125 C 12.71875 -4.078125 14.316406 -4.691406 16.109375 -5.921875 C 17.910156 -7.148438 19.578125 -8.53125 21.109375 -10.0625 C 22.648438 -11.59375 23.726562 -12.753906 24.34375 -13.546875 C 24.519531 -13.722656 25 -14.316406 25.78125 -15.328125 C 26.570312 -16.335938 27.515625 -17.476562 28.609375 -18.75 C 29.710938 -20.019531 30.789062 -21.132812 31.84375 -22.09375 C 32.894531 -23.0625 33.726562 -23.546875 34.34375 -23.546875 C 34.957031 -23.546875 35.265625 -23.019531 35.265625 -21.96875 C 35.265625 -21.351562 34.847656 -20.410156 34.015625 -19.140625 C 33.179688 -17.867188 32.191406 -16.53125 31.046875 -15.125 C 29.910156 -13.726562 28.789062 -12.414062 27.6875 -11.1875 C 26.59375 -9.957031 25.785156 -9.078125 25.265625 -8.546875 C 24.210938 -7.492188 22.960938 -6.242188 21.515625 -4.796875 C 20.066406 -3.347656 18.460938 -2.097656 16.703125 -1.046875 C 14.953125 0.00390625 13.023438 0.53125 10.921875 0.53125 Z M 6.703125 -51.703125 C 6.703125 -53.191406 7.097656 -54.484375 7.890625 -55.578125 C 8.679688 -56.679688 9.5625 -57.234375 10.53125 -57.234375 C 11.582031 -57.234375 12.457031 -56.570312 13.15625 -55.25 C 14.382812 -52.800781 14.535156 -50.894531 13.609375 -49.53125 C 12.691406 -48.175781 11.578125 -47.5 10.265625 -47.5 C 9.390625 -47.5 8.578125 -47.847656 7.828125 -48.546875 C 7.078125 -49.242188 6.703125 -50.296875 6.703125 -51.703125 Z M 6.703125 -51.703125 "/></g></g></g><g fill="#ffffff" fill-opacity="1"><g transform="translate(249.716945, 106.656654)"><g><path d="M 1.578125 21.703125 C 1.578125 23.546875 2.144531 24.46875 3.28125 24.46875 C 3.894531 24.46875 4.550781 24.25 5.25 23.8125 C 5.957031 23.375 6.53125 22.976562 6.96875 22.625 C 8.726562 21.3125 10.285156 19.316406 11.640625 16.640625 C 13.003906 13.960938 13.992188 11.53125 14.609375 9.34375 C 15.046875 7.851562 15.285156 6.335938 15.328125 4.796875 C 15.367188 3.265625 15.390625 1.578125 15.390625 -0.265625 C 14.335938 0.347656 13.128906 1.421875 11.765625 2.953125 C 10.410156 4.492188 9.335938 5.742188 8.546875 6.703125 C 6.972656 8.640625 5.414062 10.96875 3.875 13.6875 C 2.34375 16.40625 1.578125 19.078125 1.578125 21.703125 Z M 0.390625 -21.3125 C 0.390625 -23.59375 1.003906 -25.628906 2.234375 -27.421875 C 3.460938 -29.222656 4.929688 -30.671875 6.640625 -31.765625 C 8.347656 -32.867188 9.816406 -33.421875 11.046875 -33.421875 C 12.015625 -33.421875 12.738281 -33.066406 13.21875 -32.359375 C 13.707031 -31.660156 13.726562 -30.476562 13.28125 -28.8125 C 12.226562 -28.550781 11.484375 -28.394531 11.046875 -28.34375 C 10.609375 -28.300781 10.257812 -28.171875 10 -27.953125 C 9.738281 -27.734375 9.253906 -27.226562 8.546875 -26.4375 C 6.796875 -24.507812 5.984375 -22.953125 6.109375 -21.765625 C 6.242188 -20.585938 6.945312 -19.492188 8.21875 -18.484375 C 9.488281 -17.472656 11.066406 -16.222656 12.953125 -14.734375 C 14.835938 -13.242188 16.613281 -11.226562 18.28125 -8.6875 C 20.21875 -10 22.191406 -11.53125 24.203125 -13.28125 L 36.4375 -21.84375 C 37.582031 -22.625 38.570312 -23.164062 39.40625 -23.46875 C 40.238281 -23.78125 40.960938 -23.9375 41.578125 -23.9375 C 42.628906 -23.9375 43.066406 -23.5 42.890625 -22.625 C 42.710938 -21.75 41.878906 -20.875 40.390625 -20 L 31.4375 -13.8125 C 31.09375 -13.632812 30.347656 -13.128906 29.203125 -12.296875 C 28.066406 -11.460938 26.816406 -10.539062 25.453125 -9.53125 C 24.097656 -8.53125 22.9375 -7.585938 21.96875 -6.703125 C 21.007812 -5.828125 20.484375 -5.257812 20.390625 -5 C 20.304688 -4.5625 20.4375 -3.726562 20.78125 -2.5 C 21.132812 -1.269531 21.375 0.328125 21.5 2.296875 C 21.632812 4.273438 21.375 6.6875 20.71875 9.53125 C 20.0625 12.382812 18.632812 15.695312 16.4375 19.46875 C 14.507812 22.71875 12.40625 25.109375 10.125 26.640625 C 7.84375 28.171875 5.695312 28.9375 3.6875 28.9375 C 1.84375 28.9375 0.332031 28.320312 -0.84375 27.09375 C -2.03125 25.875 -2.625 24.078125 -2.625 21.703125 C -2.625 18.722656 -1.898438 15.828125 -0.453125 13.015625 C 0.984375 10.210938 2.710938 7.625 4.734375 5.25 C 6.753906 2.882812 8.617188 0.847656 10.328125 -0.859375 C 12.035156 -2.566406 13.15625 -3.816406 13.6875 -4.609375 C 12.632812 -6.453125 11.359375 -8.050781 9.859375 -9.40625 C 8.367188 -10.769531 6.898438 -12.019531 5.453125 -13.15625 C 4.003906 -14.289062 2.796875 -15.492188 1.828125 -16.765625 C 0.867188 -18.046875 0.390625 -19.5625 0.390625 -21.3125 Z M 0.390625 -21.3125 "/></g></g></g><g fill="#ffffff" fill-opacity="1"><g transform="translate(287.736468, 106.656654)"><g><path d="M 6.96875 -10.65625 C 5.125 -10.65625 3.828125 -11.578125 3.078125 -13.421875 C 2.335938 -15.265625 2.007812 -17.546875 2.09375 -20.265625 C 2.1875 -22.984375 2.539062 -25.703125 3.15625 -28.421875 C 3.769531 -31.140625 4.535156 -33.414062 5.453125 -35.25 C 6.378906 -37.09375 7.320312 -38.015625 8.28125 -38.015625 C 9.945312 -38.015625 10.929688 -37.640625 11.234375 -36.890625 C 11.546875 -36.148438 11.484375 -34.988281 11.046875 -33.40625 C 10.609375 -31.832031 10.101562 -29.835938 9.53125 -27.421875 C 8.96875 -25.015625 8.6875 -22.144531 8.6875 -18.8125 C 8.863281 -18.988281 8.992188 -19.117188 9.078125 -19.203125 C 9.160156 -19.296875 9.25 -19.382812 9.34375 -19.46875 L 15.53125 -29.859375 C 16.050781 -30.742188 16.769531 -31.90625 17.6875 -33.34375 C 18.613281 -34.789062 19.625 -36.109375 20.71875 -37.296875 C 21.8125 -38.484375 22.882812 -39.078125 23.9375 -39.078125 C 25.957031 -39.078125 27.273438 -38.046875 27.890625 -35.984375 C 28.503906 -33.921875 28.8125 -31.835938 28.8125 -29.734375 C 29.78125 -29.910156 30.960938 -30.722656 32.359375 -32.171875 C 33.765625 -33.617188 35.035156 -34.867188 36.171875 -35.921875 C 36.785156 -36.617188 37.332031 -37.226562 37.8125 -37.75 C 38.300781 -38.28125 38.894531 -38.722656 39.59375 -39.078125 C 40.476562 -39.515625 41.269531 -39.734375 41.96875 -39.734375 C 42.84375 -39.734375 43.585938 -39.378906 44.203125 -38.671875 C 44.816406 -37.972656 45.164062 -36.679688 45.25 -34.796875 C 45.34375 -32.910156 45.300781 -30.738281 45.125 -28.28125 C 44.945312 -25.832031 44.75 -23.378906 44.53125 -20.921875 C 44.3125 -18.460938 44.203125 -16.3125 44.203125 -14.46875 C 44.203125 -10.4375 44.53125 -7.609375 45.1875 -5.984375 C 45.84375 -4.359375 46.742188 -3.546875 47.890625 -3.546875 C 49.203125 -3.546875 50.671875 -4.421875 52.296875 -6.171875 C 53.921875 -7.929688 55.539062 -9.992188 57.15625 -12.359375 C 58.78125 -14.734375 60.164062 -16.882812 61.3125 -18.8125 C 61.925781 -19.78125 62.515625 -20.742188 63.078125 -21.703125 C 63.648438 -22.671875 64.640625 -23.15625 66.046875 -23.15625 C 66.304688 -23.15625 66.585938 -22.976562 66.890625 -22.625 C 67.203125 -22.28125 67.359375 -21.882812 67.359375 -21.4375 C 67.359375 -20.914062 67.09375 -20.171875 66.5625 -19.203125 C 66.039062 -18.242188 65.492188 -17.300781 64.921875 -16.375 C 64.359375 -15.457031 63.898438 -14.734375 63.546875 -14.203125 C 63.191406 -13.585938 62.882812 -13.0625 62.625 -12.625 C 62.363281 -12.1875 62.015625 -11.617188 61.578125 -10.921875 C 61.222656 -10.390625 60.867188 -9.925781 60.515625 -9.53125 C 60.171875 -9.144531 59.773438 -8.597656 59.328125 -7.890625 C 57.660156 -5.429688 55.664062 -3.28125 53.34375 -1.4375 C 51.019531 0.394531 48.765625 1.3125 46.578125 1.3125 C 45.347656 1.3125 44.160156 0.914062 43.015625 0.125 C 41.878906 -0.65625 40.960938 -2.015625 40.265625 -3.953125 C 39.035156 -7.191406 38.441406 -10.609375 38.484375 -14.203125 C 38.523438 -17.804688 38.804688 -21.316406 39.328125 -24.734375 C 39.859375 -28.148438 40.125 -31.132812 40.125 -33.6875 C 39.25 -33.070312 38.175781 -32.0625 36.90625 -30.65625 C 35.632812 -29.25 34.335938 -27.953125 33.015625 -26.765625 C 31.703125 -25.585938 30.429688 -25 29.203125 -25 C 27.191406 -25 25.8125 -25.960938 25.0625 -27.890625 C 24.3125 -29.816406 23.9375 -31.75 23.9375 -33.6875 C 22.445312 -32.71875 21.019531 -31.003906 19.65625 -28.546875 C 18.300781 -26.085938 16.941406 -23.5 15.578125 -20.78125 C 14.222656 -18.0625 12.863281 -15.710938 11.5 -13.734375 C 10.144531 -11.765625 8.722656 -10.738281 7.234375 -10.65625 Z M 6.96875 -10.65625 "/></g></g></g></svg>