<svg xmlns="http://www.w3.org/2000/svg" xmlns:xlink="http://www.w3.org/1999/xlink" width="500" zoomAndPan="magnify" viewBox="0 0 375 187.499995" height="250" preserveAspectRatio="xMidYMid meet" version="1.0"><defs><g/><clipPath id="74a8a2df27"><path d="M 0.5 0 L 374.5 0 L 374.5 187 L 0.5 187 Z M 0.5 0 " clip-rule="nonzero"/></clipPath></defs><g clip-path="url(#74a8a2df27)"><path stroke-linecap="butt" transform="matrix(0.748005, 0, 0, 0.748005, 14.063647, -2.55212)" fill="none" stroke-linejoin="miter" d="M 96.087362 111.005353 C 98.661918 110.404797 101.236474 109.485686 103.816252 108.258464 C 106.390808 107.026019 109.153363 106.409797 112.103919 106.409797 C 112.333697 106.409797 112.589586 106.435908 112.876808 106.493352 C 113.158808 106.550797 113.419919 106.58213 113.649697 106.58213 C 118.830142 106.952908 122.908698 108.571797 125.885364 111.433575 C 128.893365 114.295353 131.065809 117.93002 132.413143 122.342798 C 133.760476 126.750354 134.601254 131.471243 134.945921 136.510688 C 135.290587 141.550133 135.462921 146.474688 135.462921 151.279133 C 136.523032 151.054578 137.807699 150.380911 139.327365 149.263355 C 140.873143 148.1458 142.403254 146.944688 143.922921 145.654799 C 145.437366 144.370133 146.612366 143.42491 147.442699 142.824355 L 155.9027 135.779577 C 158.106478 133.920465 160.6967 131.471243 163.673367 128.437132 C 166.676145 125.376909 169.240256 122.729242 171.360479 120.494131 C 172.989812 118.749909 174.091701 117.371242 174.666146 116.373797 C 175.266701 115.371131 176.681924 114.869797 178.917035 114.869797 C 179.146813 114.869797 179.345257 114.869797 179.51759 114.869797 C 179.716035 114.869797 179.872702 114.869797 179.98759 114.869797 C 180.332257 116.269353 180.50459 117.245909 180.50459 117.78902 C 180.50459 118.30602 180.03459 119.146798 179.089368 120.321798 C 178.514924 121.152131 177.987479 121.898909 177.49659 122.556909 C 177.042257 123.183576 176.394701 123.784131 175.564368 124.358576 C 174.995146 125.188909 174.519923 125.904354 174.149146 126.504909 C 173.804479 127.079354 173.162146 127.70602 172.216923 128.395354 C 171.303034 129.685243 170.201145 130.797576 168.911256 131.742799 L 154.137589 145.482466 C 152.967811 146.657466 151.693588 147.759355 150.320144 148.793355 C 148.97281 149.848244 147.599366 150.908355 146.194588 151.968467 C 143.045588 154.318467 140.669477 155.989578 139.066254 156.992245 C 137.494365 157.994911 136.37681 158.809578 135.71881 159.441467 C 135.086921 160.099467 134.690032 160.987245 134.517698 162.104801 C 134.345365 163.217134 133.958921 165.065801 133.358365 167.640357 C 131.123254 180.064024 127.217031 191.928914 121.634475 203.240248 C 116.083253 214.572471 108.798252 224.750583 99.779474 233.769361 C 93.335251 240.208362 86.938028 244.861362 80.582583 247.72314 C 74.258472 250.616251 68.461805 252.062807 63.192582 252.062807 C 57.437693 252.062807 52.659359 250.558807 48.852359 247.550807 C 45.045359 244.57414 42.752803 240.511251 41.979914 235.356917 C 41.238359 230.202583 42.496914 224.395472 45.760803 217.925138 C 48.105581 213.486249 51.04047 209.292804 54.565471 205.344804 C 58.085249 201.422914 61.77736 197.997136 65.641805 195.077914 C 74.430805 188.153247 83.073584 182.283469 91.575362 177.473802 C 100.07714 172.664135 109.022808 167.572468 118.412364 162.188356 C 121.107031 160.668689 123.154142 159.525023 124.553698 158.752134 C 125.984587 157.979245 126.929809 156.835578 127.389365 155.315911 L 127.389365 154.804133 C 127.958587 151.394022 128.245809 147.372911 128.245809 142.735577 C 128.245809 138.098243 127.744476 133.560132 126.747031 129.126465 C 125.770476 124.661465 124.109809 120.93802 121.765031 117.961353 C 119.415031 114.953353 116.198142 113.449353 112.103919 113.449353 C 110.213474 113.449353 108.208141 113.809686 106.093141 114.525131 C 101.283474 116.044797 97.617474 117.632353 95.100362 119.29302 C 92.578029 120.922353 90.463029 122.525576 88.744917 124.102687 C 87.052917 125.674576 84.864806 127.350909 82.175361 129.126465 C 81.830695 129.241354 81.574806 129.408465 81.402472 129.638243 C 81.230139 129.868021 80.843695 129.982909 80.243139 129.982909 C 80.12825 129.982909 79.955917 129.956798 79.726139 129.899354 C 79.496361 129.841909 79.266583 129.810576 79.036806 129.810576 C 77.151583 129.465909 76.232472 128.625132 76.289917 127.277798 C 76.347361 125.930465 76.880028 124.499576 77.877472 122.985131 C 78.880139 121.439353 79.668695 120.321798 80.243139 119.637687 C 80.843695 118.692464 81.402472 117.872575 81.91425 117.188464 C 82.457361 116.47302 83.016139 115.700131 83.590584 114.869797 C 88.285362 108.054797 92.98014 101.427796 97.674918 94.988796 C 102.369696 88.544573 106.81903 81.750462 111.028141 74.590795 C 112.432919 72.131128 114.062252 68.794127 115.921364 64.585016 C 117.811808 60.349794 119.603031 55.743793 121.289809 50.761793 C 123.00792 45.779792 124.297809 40.829125 125.154253 35.90457 C 126.042031 30.980014 126.083809 26.53068 125.284809 22.551346 C 124.799142 20.201346 124.109809 18.556346 123.222031 17.611124 C 122.365586 16.665902 121.347253 16.195902 120.172253 16.195902 C 118.772697 16.195902 117.185142 16.754679 115.409586 17.867013 C 113.660141 18.984568 111.98903 20.274457 110.385808 21.731457 C 108.808697 23.19368 107.508363 24.452235 106.479585 25.512347 C 101.555029 30.436903 96.828918 36.473792 92.306473 43.633459 C 87.784028 50.787904 83.590584 58.53246 79.726139 66.861905 C 75.861694 75.19135 72.284472 83.724462 68.989249 92.456018 C 65.699249 101.187574 62.76436 109.715464 60.189804 118.044909 C 57.610026 126.374354 55.453248 133.993576 53.703804 140.892132 C 52.528804 145.472022 51.359026 149.895244 50.184026 154.156578 C 49.009026 158.454467 47.948915 163.003023 47.003692 167.81269 L 43.656248 190.142914 C 43.311581 191.657358 42.95647 192.644358 42.585692 193.103914 C 42.241025 193.589581 41.426359 194.132692 40.13647 194.73847 C 37.932692 194.247581 36.783803 193.359803 36.700247 192.075136 C 36.642803 190.785247 36.68458 189.025358 36.830803 186.790247 L 40.13647 153.728356 C 41.426359 138.845021 43.09747 124.160131 45.160248 109.673686 C 47.223026 95.18724 49.009026 80.617239 50.528692 65.958461 C 51.097915 62.323794 51.588804 58.631682 51.985693 54.882126 C 52.413915 51.132571 52.633248 47.440459 52.633248 43.805792 C 52.633248 41.941459 52.690693 39.810792 52.800359 37.40857 C 52.915248 35.001125 52.857804 32.96968 52.633248 31.309014 C 52.288582 29.335014 51.959581 27.616902 51.641026 26.15468 C 51.359026 24.666347 50.983026 23.104902 50.528692 21.475569 C 48.638248 21.590457 47.019359 22.619235 45.677248 24.567124 C 44.329914 26.48368 43.186248 28.274902 42.241025 29.935569 C 37.316469 37.319792 33.091691 45.565681 29.571913 54.668015 C 26.078246 63.744238 23.691691 72.789128 22.401802 81.807906 C 21.916135 84.983017 21.613246 88.617684 21.498357 92.711907 C 21.383468 96.806129 21.801246 100.268463 22.746468 103.10413 C 23.430579 104.848352 24.250468 105.939797 25.190468 106.368019 C 26.135691 106.77013 27.039135 106.968575 27.89558 106.968575 C 28.783358 106.968575 29.430913 107.198352 29.827802 107.652686 C 30.261247 108.112241 30.303024 109.229797 29.958358 111.005353 C 28.443913 111.350019 26.966024 111.51713 25.535135 111.51713 C 23.676024 111.51713 22.187691 111.088908 21.070135 110.232464 C 19.952579 109.344686 18.923801 108.013019 17.978579 106.237463 C 16.464135 102.858685 15.70169 99.150907 15.70169 95.119351 C 15.70169 91.05124 15.931468 87.202462 16.391023 83.567795 C 16.991579 77.698017 18.135246 71.90135 19.827246 66.177794 C 21.545357 60.422905 23.388802 54.840349 25.362802 49.430126 L 30.820024 37.492125 C 31.42058 36.202236 32.391913 34.270014 33.739247 31.695458 C 35.081358 29.089569 36.68458 26.441902 38.548914 23.752458 C 40.434136 21.063013 42.397692 18.786124 44.429137 16.92179 C 46.491914 15.036568 48.580803 14.091346 50.701026 14.091346 C 52.701137 14.091346 54.461026 15.094013 55.980693 17.094124 C 57.986026 19.559013 59.302026 22.493902 59.928693 25.898791 C 60.586693 29.277569 60.889582 32.78168 60.832138 36.416347 C 60.774693 40.056237 60.748582 43.461126 60.748582 46.636237 C 60.748582 49.555459 60.586693 52.218793 60.27336 54.626238 C 59.986138 57.02846 59.730249 59.634349 59.500471 62.438683 C 59.270693 67.734016 58.800693 72.930128 58.085249 78.027017 C 57.395915 83.123906 56.638693 88.304351 55.80836 93.568351 L 53.145026 116.28502 C 52.915248 117.804686 52.690693 119.120687 52.460915 120.238242 C 52.231137 121.350576 52.116248 122.614353 52.116248 124.013909 C 52.946582 122.953798 53.53147 121.669131 53.876137 120.149464 C 54.220804 118.63502 54.565471 117.287686 54.904915 116.112686 L 57.395915 108.169686 C 60.430027 98.096018 64.08036 88.017129 68.346916 77.943461 C 72.639583 67.864572 77.250805 58.245238 82.175361 49.085459 C 84.060584 46.051348 86.468028 42.301792 89.387251 37.836792 C 92.337807 33.371792 95.586029 28.97468 99.131918 24.65068 C 102.714363 20.300568 106.375141 16.697235 110.124697 13.830235 C 113.905586 10.968457 117.540253 9.537568 121.03392 9.537568 C 123.869587 9.537568 126.329253 10.681234 128.418142 12.97379 C 130.538365 15.235013 132.011032 18.713013 132.841365 23.407791 C 133.671698 28.332347 133.588143 33.554569 132.585476 39.079681 C 131.582809 44.578681 130.021365 50.145571 127.906365 55.785571 C 125.812253 61.394238 123.436142 66.820127 120.778031 72.058017 C 118.140808 77.269795 115.534919 81.975017 112.960364 86.184129 C 112.015141 87.615018 110.730474 89.536796 109.095919 91.939018 C 107.466585 94.315129 105.732807 96.806129 103.899807 99.412018 C 102.098141 101.986574 100.45314 104.336574 98.964807 106.451575 C 97.502585 108.540464 96.541696 110.06013 96.087362 111.005353 Z M 62.853138 246.093807 C 65.427694 246.093807 68.059694 245.618584 70.749138 244.673362 C 73.443805 243.72814 75.673694 242.840362 77.44925 242.010028 C 84.118028 238.636473 89.914695 234.385583 94.839251 229.257361 C 99.763807 224.165694 104.103474 218.510027 107.85303 212.300804 C 111.602586 206.086359 114.95003 199.704803 117.900586 193.145692 C 118.469808 191.861025 119.20092 189.986247 120.088697 187.521358 C 120.976475 185.061691 121.848586 182.382691 122.710253 179.494802 C 123.598031 176.627802 124.32392 173.96969 124.898364 171.504801 C 125.49892 169.045134 125.801809 167.112912 125.801809 165.708134 L 85.522806 188.722469 L 70.065027 199.976359 C 68.059694 201.522137 65.714916 203.611026 63.020249 206.243026 C 60.330804 208.880248 58.15836 211.251137 56.497693 213.37136 C 51.802915 219.470916 49.123915 224.980361 48.465915 229.904916 C 47.834026 234.829472 48.836692 238.751362 51.473915 241.670584 C 54.132026 244.615918 57.928582 246.093807 62.853138 246.093807 Z M 181.914591 141.962688 C 183.658813 141.477021 185.235924 139.915577 186.63548 137.283577 C 188.066369 134.651576 189.069036 131.643576 189.64348 128.264798 C 190.244036 124.859909 190.385036 121.726576 190.071702 118.864798 C 189.78448 115.971686 188.886258 113.997686 187.366591 112.937575 C 186.995813 114.222242 186.337813 116.070909 185.392591 118.478353 C 184.47348 120.880576 183.575257 123.528242 182.68748 126.421354 C 181.825813 129.283132 181.240924 132.087465 180.92759 134.834354 C 180.640368 137.586466 180.969368 139.957355 181.914591 141.962688 Z M 173.109923 135.993688 C 173.109923 134.44791 173.428479 132.186687 174.055146 129.210021 C 174.713146 126.207243 175.632257 122.985131 176.802035 119.548909 C 177.977035 116.086575 179.293035 112.807019 180.755257 109.715464 C 182.212257 106.597797 183.789368 104.033685 185.476146 102.028352 C 187.194258 100.028241 188.943702 99.025574 190.714036 99.025574 C 191.889036 99.025574 192.703702 99.553018 193.163258 100.61313 C 193.622814 101.673241 193.737703 102.561019 193.507925 103.276463 C 193.278147 103.845685 192.834258 104.435797 192.176258 105.036352 C 191.544369 105.610797 191.001258 106.25313 190.546925 106.968575 C 190.77148 107.767575 191.345925 108.671019 192.259814 109.673686 C 193.205036 110.676353 194.150258 112.008019 195.09548 113.668686 C 196.040703 115.29802 196.656925 117.517464 196.944147 120.321798 C 197.231369 123.126131 196.897147 126.818243 195.957147 131.398132 C 194.667258 137.497688 192.620147 142.077577 189.815813 145.143022 C 187.01148 148.177133 184.259369 149.691578 181.569924 149.691578 C 179.340035 149.691578 177.360812 148.547911 175.642701 146.255355 C 173.955923 143.968022 173.109923 140.547466 173.109923 135.993688 Z M 212.866704 141.962688 C 214.616148 141.477021 216.188037 139.915577 217.592815 137.283577 C 219.023704 134.651576 220.026371 131.643576 220.595593 128.264798 C 221.196149 124.859909 221.342371 121.726576 221.023816 118.864798 C 220.741816 115.971686 219.838371 113.997686 218.318704 112.937575 C 217.947926 114.222242 217.289926 116.070909 216.344704 118.478353 C 215.430815 120.880576 214.527371 123.528242 213.639593 126.421354 C 212.783148 129.283132 212.193037 132.087465 211.879704 134.834354 C 211.592482 137.586466 211.921482 139.957355 212.866704 141.962688 Z M 204.067259 135.993688 C 204.067259 134.44791 204.380592 132.186687 205.012481 129.210021 C 205.670481 126.207243 206.58437 122.985131 207.75937 119.548909 C 208.929148 116.086575 210.25037 112.807019 211.70737 109.715464 C 213.169593 106.597797 214.741482 104.033685 216.433482 102.028352 C 218.151593 100.028241 219.895815 99.025574 221.671371 99.025574 C 222.846371 99.025574 223.661038 99.553018 224.115371 100.61313 C 224.574927 101.673241 224.689816 102.561019 224.460038 103.276463 C 224.23026 103.845685 223.786371 104.435797 223.128371 105.036352 C 222.501705 105.610797 221.958593 106.25313 221.499038 106.968575 C 221.728816 107.767575 222.298038 108.671019 223.217149 109.673686 C 224.162371 110.676353 225.107594 112.008019 226.047594 113.668686 C 226.992816 115.29802 227.609038 117.517464 227.89626 120.321798 C 228.183483 123.126131 227.854483 126.818243 226.90926 131.398132 C 225.619371 137.497688 223.57226 142.077577 220.767927 145.143022 C 217.963593 148.177133 215.216704 149.691578 212.522037 149.691578 C 210.292148 149.691578 208.318148 148.547911 206.600037 146.255355 C 204.908037 143.968022 204.067259 140.547466 204.067259 135.993688 Z M 235.019372 132.646243 C 235.019372 124.201909 235.217817 115.757575 235.619928 107.313241 C 236.04815 98.868907 236.606928 90.72224 237.296261 82.878462 C 237.41115 82.048128 237.640928 80.115906 237.980372 77.081795 C 238.356372 74.021572 238.826372 70.470461 239.400817 66.433683 C 240.001372 62.370794 240.70115 58.401904 241.505373 54.53746 C 242.335706 50.673015 243.275706 47.456126 244.335817 44.876348 C 245.395928 42.301792 246.513484 41.011903 247.688484 41.011903 C 250.033262 41.011903 251.380595 41.628126 251.72004 42.86057 C 252.064707 44.087792 251.939373 45.764126 251.333595 47.884348 C 250.764373 49.973237 250.247373 52.365015 249.787818 55.05446 C 248.273373 63.728572 246.899928 73.118128 245.667484 83.223128 C 244.435039 93.296796 243.495039 103.318241 242.831817 113.282242 C 242.20515 123.24102 241.891817 132.390354 241.891817 140.719799 C 242.116373 140.490021 242.821373 139.231466 243.99115 136.93891 C 245.166151 134.651576 246.654484 131.742799 248.461373 128.22302 C 250.289151 124.703242 252.252707 120.979798 254.341596 117.057909 C 256.461818 113.136019 258.576818 109.443908 260.697041 105.981574 C 262.817263 102.519241 264.718152 99.709685 266.410152 97.563352 C 268.123041 95.390907 269.444263 94.299463 270.358152 94.299463 C 272.932708 94.299463 274.081597 94.915685 273.794375 96.148129 C 273.507153 97.380574 272.535819 99.051685 270.875152 101.171907 C 269.240597 103.260797 267.553819 105.777908 265.804374 108.728464 C 265.318708 109.417797 264.874819 110.086241 264.47793 110.744241 C 264.075819 111.37613 263.63193 112.049797 263.146263 112.765242 C 262.086152 114.509464 261.386374 115.882909 261.041707 116.885575 C 260.697041 117.888242 260.556041 119.120687 260.613485 120.577687 C 260.670929 122.039909 260.869374 124.473465 261.214041 127.878354 C 261.443818 130.343243 261.939929 133.476576 262.712818 137.283577 C 263.485707 141.090577 264.389152 144.897577 265.41793 148.704577 C 266.478041 152.542911 267.423263 155.634467 268.253597 157.979245 C 269.198819 160.183023 270.013486 161.817578 270.702819 162.87769 C 271.418263 163.932579 271.888264 165.050134 272.118041 166.225134 C 271.658486 166.68469 271.188486 167.170357 270.702819 167.682134 C 270.243263 168.230468 269.668819 168.502023 268.984708 168.502023 C 268.728819 168.502023 268.253597 168.387134 267.569485 168.157357 C 266.164708 167.468023 264.963596 166.240801 263.96093 164.465245 C 262.958263 162.715801 262.12793 160.841023 261.469929 158.840912 C 260.838041 156.835578 260.294929 155.133133 259.840596 153.728356 C 258.519374 149.863911 257.448818 145.915911 256.618485 141.879133 C 255.814262 137.811021 254.942151 133.78991 253.996929 129.810576 L 246.26804 146.6888 C 245.437706 149.263355 244.696151 151.926689 244.03815 154.673578 C 243.406262 157.4518 242.706484 159.770467 241.933595 161.629578 C 241.186817 163.520023 240.23115 164.465245 239.05615 164.465245 C 237.536483 164.465245 236.56515 163.906467 236.136928 162.788912 C 235.734817 161.671356 235.562483 160.297912 235.619928 158.668578 C 235.677372 157.034022 235.651261 155.503911 235.536372 154.073022 C 235.421483 152.783133 235.306594 151.780467 235.191705 151.065022 C 235.076817 150.380911 235.019372 149.221578 235.019372 147.587022 Z M 289.544598 146.6888 C 287.194598 146.6888 285.105709 145.926355 283.272709 144.411911 C 281.471042 142.892244 280.097597 141.320355 279.152375 139.685799 C 277.063486 135.680354 275.857153 130.959465 275.543819 125.517909 C 275.256597 120.050242 275.585597 115.099575 276.530819 110.660686 C 276.760597 109.370797 277.073931 107.825019 277.476042 106.023352 C 277.904264 104.190352 278.520486 102.571463 279.324708 101.171907 C 280.155042 99.741018 281.152486 99.025574 282.327486 99.025574 C 285.016931 99.025574 286.338153 99.939463 286.280709 101.772463 C 286.223265 103.57413 285.721931 106.39413 284.776709 110.232464 C 283.857598 114.039464 283.403264 118.91702 283.403264 124.875576 C 283.403264 126.651131 283.633042 128.766132 284.087375 131.231021 C 284.546931 133.690688 285.278042 135.868354 286.280709 137.753577 C 287.278153 139.61791 288.541931 140.547466 290.056376 140.547466 C 291.94682 140.547466 294.093154 139.732799 296.500599 138.098243 C 298.902821 136.437577 301.122266 134.594132 303.15371 132.557465 C 305.216488 130.49991 306.663044 128.938465 307.493377 127.878354 C 307.717933 127.648576 308.365488 126.865243 309.425599 125.517909 C 310.480488 124.170576 311.744266 122.656131 313.201266 120.964131 C 314.663489 119.251242 316.094378 117.747242 317.493933 116.457353 C 318.898711 115.167464 320.016267 114.525131 320.8466 114.525131 C 321.676934 114.525131 322.089489 115.224908 322.089489 116.629686 C 322.089489 117.46002 321.530711 118.718575 320.413156 120.410575 C 319.300822 122.097353 317.969156 123.888576 316.423378 125.773798 C 314.903711 127.638132 313.415378 129.398021 311.958377 131.058687 C 310.496155 132.688021 309.409933 133.863021 308.694488 134.578465 C 307.28971 135.983243 305.613377 137.654354 303.67071 139.602243 C 301.748932 141.518799 299.618265 143.179466 297.273488 144.584244 C 294.923487 145.983799 292.348932 146.6888 289.544598 146.6888 Z M 283.915042 76.867684 C 283.915042 74.893683 284.447709 73.175572 285.50782 71.71335 C 286.562709 70.225016 287.737709 69.483461 289.027598 69.483461 C 290.427154 69.483461 291.602154 70.371239 292.547376 72.141572 C 294.181932 75.405461 294.380376 77.953906 293.147932 79.786906 C 291.920709 81.588573 290.416709 82.492017 288.641154 82.492017 C 287.497487 82.492017 286.421709 82.032462 285.419042 81.118573 C 284.416376 80.17335 283.915042 78.758128 283.915042 76.867684 Z M 317.144044 175.024579 C 317.144044 177.489468 317.906489 178.721913 319.420934 178.721913 C 320.251267 178.721913 321.139045 178.419024 322.084267 177.818468 C 323.029489 177.244024 323.786712 176.732246 324.361156 176.272691 C 326.705934 174.497135 328.784379 171.823357 330.586045 168.240912 C 332.419046 164.66369 333.750712 161.415467 334.581046 158.496245 C 335.150268 156.490911 335.468824 154.459467 335.526268 152.396689 C 335.583712 150.365244 335.609824 148.119689 335.609824 145.654799 C 334.205046 146.459022 332.591379 147.889911 330.758379 149.952689 C 328.956712 152.010244 327.525823 153.686578 326.465712 154.976467 C 324.376823 157.551023 322.298378 160.658245 320.2356 164.292912 C 318.178045 167.927579 317.144044 171.504801 317.144044 175.024579 Z M 315.556489 117.486131 C 315.556489 114.45202 316.371156 111.736464 318.005711 109.329019 C 319.666378 106.926797 321.640378 104.994574 323.932934 103.532352 C 326.220267 102.075352 328.183823 101.344241 329.813156 101.344241 C 331.103045 101.344241 332.058712 101.814241 332.690601 102.759463 C 333.348601 103.678574 333.390379 105.250463 332.821157 107.485575 C 331.416379 107.825019 330.413712 108.028686 329.813156 108.08613 C 329.238712 108.143575 328.768712 108.326352 328.397934 108.644908 C 328.053267 108.926908 327.410934 109.600575 326.465712 110.660686 C 324.115712 113.235242 323.029489 115.313686 323.201823 116.885575 C 323.400267 118.462686 324.345489 119.935353 326.032267 121.308798 C 327.724267 122.656131 329.828823 124.332465 332.345934 126.332576 C 334.894379 128.306576 337.27049 131.001243 339.474268 134.406132 C 342.048824 132.630576 344.701713 130.573021 347.417269 128.22302 L 363.778492 116.80202 C 365.298159 115.741908 366.614159 115.010797 367.726492 114.608686 C 368.844048 114.211797 369.804937 114.008131 370.603937 114.008131 C 372.008715 114.008131 372.593604 114.598242 372.369048 115.76802 C 372.139271 116.916909 371.021715 118.076242 369.016381 119.251242 L 357.078381 127.533687 C 356.624047 127.763465 355.62138 128.437132 354.075603 129.554687 C 352.555936 130.672243 350.884825 131.899465 349.051824 133.246799 C 347.244935 134.594132 345.699158 135.852688 344.414491 137.027688 C 343.124602 138.197466 342.424824 138.95991 342.309935 139.299355 C 342.195046 139.905132 342.36738 141.033132 342.821713 142.693799 C 343.312602 144.323133 343.641602 146.459022 343.813935 149.091022 C 343.981046 151.723022 343.625935 154.945133 342.738157 158.752134 C 341.85038 162.559134 339.949491 166.982357 337.025046 172.021801 C 334.45049 176.371913 331.63049 179.562691 328.570267 181.599358 C 325.536156 183.656913 322.669156 184.690913 319.979711 184.690913 C 317.520044 184.690913 315.499044 183.86058 313.927155 182.199913 C 312.323933 180.565357 311.519711 178.17358 311.519711 175.024579 C 311.519711 171.050468 312.496266 167.170357 314.438933 163.389467 C 316.360711 159.639912 318.663711 156.177578 321.353156 152.997244 C 324.073934 149.848244 326.564934 147.143133 328.826156 144.881911 C 331.11349 142.594577 332.61749 140.918244 333.332934 139.858132 C 331.933379 137.398466 330.230934 135.262577 328.225601 133.46091 C 326.251601 131.62791 324.288045 129.956798 322.340156 128.437132 C 320.397489 126.891354 318.7786 125.272465 317.488711 123.585687 C 316.204044 121.867576 315.556489 119.836131 315.556489 117.486131 Z M 375.189049 131.742799 C 372.724159 131.742799 370.995604 130.515576 369.992937 128.050687 C 368.99027 125.59102 368.546381 122.541242 368.66127 118.906575 C 368.80227 115.271908 369.277493 111.632019 370.076493 107.997352 C 370.906826 104.362685 371.940826 101.312907 373.168048 98.853241 C 374.400493 96.388352 375.659049 95.161129 376.948938 95.161129 C 379.178827 95.161129 380.500049 95.662463 380.896938 96.665129 C 381.330382 97.662574 381.241605 99.224018 380.641049 101.344241 C 380.066604 103.43313 379.39816 106.096463 378.625271 109.329019 C 377.852382 112.566797 377.465938 116.399909 377.465938 120.838798 C 377.721826 120.60902 377.909826 120.436687 378.019493 120.321798 C 378.134382 120.206909 378.249271 120.09202 378.36416 119.977131 L 386.610049 106.06513 C 387.325494 104.89013 388.296827 103.344352 389.529272 101.427796 C 390.761716 99.479907 392.103827 97.720018 393.56605 96.148129 C 395.028272 94.544907 396.459161 93.740685 397.858717 93.740685 C 400.579495 93.740685 402.339384 95.129796 403.143606 97.908018 C 403.973939 100.654907 404.386495 103.43313 404.386495 106.237463 C 405.676384 106.007686 407.248273 104.93713 409.112606 103.015352 C 410.997829 101.072685 412.700273 99.396352 414.21994 97.991574 C 415.050274 97.051574 415.781385 96.231685 416.408051 95.547574 C 417.066051 94.832129 417.870274 94.231574 418.815496 93.740685 C 419.990496 93.171462 421.045385 92.88424 421.990607 92.88424 C 423.165607 92.88424 424.152608 93.35424 424.95683 94.299463 C 425.787163 95.244685 426.257163 96.978463 426.372052 99.495574 C 426.486941 102.017908 426.429497 104.921463 426.199719 108.211464 C 425.969941 111.475353 425.698385 114.754908 425.385052 118.044909 C 425.09783 121.308798 424.95683 124.170576 424.95683 126.635465 C 424.95683 132.045687 425.400719 135.837021 426.288497 138.014688 C 427.171052 140.161021 428.377386 141.231577 429.89183 141.231577 C 431.641275 141.231577 433.599608 140.072244 435.777275 137.753577 C 437.94972 135.408799 440.11172 132.646243 442.258053 129.465909 C 444.43572 126.290798 446.294831 123.413353 447.840609 120.838798 C 448.644831 119.548909 449.428165 118.25902 450.201054 116.974353 C 450.973943 115.684464 452.295165 115.042131 454.154276 115.042131 C 454.498943 115.042131 454.869721 115.282353 455.271832 115.76802 C 455.700054 116.227575 455.914165 116.744575 455.914165 117.31902 C 455.914165 118.034464 455.553832 119.031909 454.838387 120.321798 C 454.154276 121.611687 453.423165 122.870242 452.650276 124.102687 C 451.908721 125.329909 451.292498 126.306465 450.806832 127.021909 C 450.347276 127.820909 449.929498 128.525909 449.55872 129.126465 C 449.214054 129.695687 448.75972 130.458132 448.185276 131.398132 C 447.72572 132.118799 447.25572 132.729799 446.770054 133.246799 C 446.310498 133.763799 445.783053 134.489688 445.177276 135.43491 C 442.947387 138.730132 440.268386 141.607577 437.15072 144.067244 C 434.059164 146.532133 431.051164 147.759355 428.131941 147.759355 C 426.502608 147.759355 424.90983 147.231911 423.364052 146.1718 C 421.849607 145.111688 420.617163 143.294355 419.671941 140.719799 C 418.042607 136.395799 417.254051 131.831576 417.311496 127.021909 C 417.36894 122.212242 417.739718 117.517464 418.429052 112.937575 C 419.144496 108.357686 419.499607 104.362685 419.499607 100.957796 C 418.329829 101.78813 416.89894 103.145908 415.20694 105.036352 C 413.520162 106.895463 411.786384 108.629241 410.010829 110.232464 C 408.266606 111.804353 406.564162 112.592908 404.903495 112.592908 C 402.208828 112.592908 400.365384 111.303019 399.362717 108.728464 C 398.36005 106.153908 397.858717 103.563685 397.858717 100.957796 C 395.884717 102.242463 393.978605 104.535019 392.150827 107.825019 C 390.343938 111.120242 388.526605 114.582575 386.693605 118.217242 C 384.891938 121.851909 383.074605 124.990465 381.241605 127.622465 C 379.439938 130.254465 377.533826 131.62791 375.533715 131.742799 Z M 375.189049 131.742799 " stroke="#fffef9" stroke-width="13.191075" stroke-opacity="1" stroke-miterlimit="4"/></g><g fill="#122620" fill-opacity="1"><g transform="translate(25.809667, 106.656649)"><g><path d="M 60.125 -26.1875 C 62.050781 -26.625 63.976562 -27.300781 65.90625 -28.21875 C 67.84375 -29.132812 69.90625 -29.59375 72.09375 -29.59375 C 72.269531 -29.59375 72.46875 -29.570312 72.6875 -29.53125 C 72.90625 -29.488281 73.101562 -29.46875 73.28125 -29.46875 C 77.132812 -29.207031 80.179688 -28 82.421875 -25.84375 C 84.660156 -23.695312 86.28125 -20.976562 87.28125 -17.6875 C 88.289062 -14.40625 88.925781 -10.878906 89.1875 -7.109375 C 89.457031 -3.335938 89.59375 0.347656 89.59375 3.953125 C 90.382812 3.773438 91.347656 3.269531 92.484375 2.4375 C 93.628906 1.601562 94.769531 0.707031 95.90625 -0.25 C 97.050781 -1.21875 97.929688 -1.925781 98.546875 -2.375 L 104.859375 -7.625 C 106.523438 -9.03125 108.472656 -10.875 110.703125 -13.15625 C 112.941406 -15.4375 114.851562 -17.410156 116.4375 -19.078125 C 117.664062 -20.390625 118.5 -21.414062 118.9375 -22.15625 C 119.375 -22.90625 120.425781 -23.28125 122.09375 -23.28125 C 122.269531 -23.28125 122.421875 -23.28125 122.546875 -23.28125 C 122.679688 -23.28125 122.789062 -23.28125 122.875 -23.28125 C 123.144531 -22.226562 123.28125 -21.503906 123.28125 -21.109375 C 123.28125 -20.722656 122.925781 -20.085938 122.21875 -19.203125 C 121.78125 -18.585938 121.382812 -18.039062 121.03125 -17.5625 C 120.6875 -17.082031 120.207031 -16.625 119.59375 -16.1875 C 119.15625 -15.570312 118.800781 -15.046875 118.53125 -14.609375 C 118.269531 -14.171875 117.789062 -13.6875 117.09375 -13.15625 C 116.382812 -12.1875 115.550781 -11.351562 114.59375 -10.65625 L 103.546875 -0.390625 C 102.660156 0.484375 101.710938 1.3125 100.703125 2.09375 C 99.703125 2.882812 98.675781 3.675781 97.625 4.46875 C 95.25 6.226562 93.46875 7.476562 92.28125 8.21875 C 91.101562 8.96875 90.269531 9.582031 89.78125 10.0625 C 89.300781 10.539062 88.992188 11.195312 88.859375 12.03125 C 88.734375 12.863281 88.453125 14.25 88.015625 16.1875 C 86.347656 25.476562 83.429688 34.351562 79.265625 42.8125 C 75.097656 51.28125 69.640625 58.894531 62.890625 65.65625 C 58.066406 70.476562 53.285156 73.960938 48.546875 76.109375 C 43.804688 78.253906 39.460938 79.328125 35.515625 79.328125 C 31.222656 79.328125 27.648438 78.207031 24.796875 75.96875 C 21.953125 73.738281 20.242188 70.691406 19.671875 66.828125 C 19.097656 62.972656 20.039062 58.632812 22.5 53.8125 C 24.25 50.476562 26.4375 47.34375 29.0625 44.40625 C 31.695312 41.46875 34.460938 38.898438 37.359375 36.703125 C 43.941406 31.523438 50.410156 27.140625 56.765625 23.546875 C 63.128906 19.953125 69.816406 16.140625 76.828125 12.109375 C 78.847656 10.960938 80.382812 10.101562 81.4375 9.53125 C 82.488281 8.96875 83.191406 8.113281 83.546875 6.96875 L 83.546875 6.578125 C 83.984375 4.035156 84.203125 1.035156 84.203125 -2.421875 C 84.203125 -5.890625 83.828125 -9.289062 83.078125 -12.625 C 82.335938 -15.957031 81.085938 -18.742188 79.328125 -20.984375 C 77.578125 -23.222656 75.164062 -24.34375 72.09375 -24.34375 C 70.6875 -24.34375 69.195312 -24.078125 67.625 -23.546875 C 64.03125 -22.410156 61.289062 -21.226562 59.40625 -20 C 57.519531 -18.769531 55.9375 -17.5625 54.65625 -16.375 C 53.382812 -15.195312 51.742188 -13.945312 49.734375 -12.625 C 49.460938 -12.539062 49.257812 -12.410156 49.125 -12.234375 C 49 -12.054688 48.71875 -11.96875 48.28125 -11.96875 C 48.195312 -11.96875 48.066406 -11.988281 47.890625 -12.03125 C 47.710938 -12.082031 47.535156 -12.109375 47.359375 -12.109375 C 45.953125 -12.367188 45.269531 -13.003906 45.3125 -14.015625 C 45.363281 -15.023438 45.757812 -16.097656 46.5 -17.234375 C 47.25 -18.367188 47.84375 -19.203125 48.28125 -19.734375 C 48.71875 -20.429688 49.132812 -21.039062 49.53125 -21.5625 C 49.925781 -22.09375 50.34375 -22.664062 50.78125 -23.28125 C 54.289062 -28.375 57.800781 -33.332031 61.3125 -38.15625 C 64.820312 -42.976562 68.15625 -48.066406 71.3125 -53.421875 C 72.363281 -55.253906 73.585938 -57.75 74.984375 -60.90625 C 76.390625 -64.070312 77.726562 -67.515625 79 -71.234375 C 80.269531 -74.960938 81.234375 -78.671875 81.890625 -82.359375 C 82.554688 -86.046875 82.582031 -89.378906 81.96875 -92.359375 C 81.613281 -94.109375 81.109375 -95.332031 80.453125 -96.03125 C 79.796875 -96.738281 79.023438 -97.09375 78.140625 -97.09375 C 77.085938 -97.09375 75.90625 -96.675781 74.59375 -95.84375 C 73.28125 -95.007812 72.03125 -94.039062 70.84375 -92.9375 C 69.65625 -91.84375 68.671875 -90.90625 67.890625 -90.125 C 64.203125 -86.4375 60.671875 -81.914062 57.296875 -76.5625 C 53.921875 -71.21875 50.785156 -65.429688 47.890625 -59.203125 C 44.992188 -52.972656 42.316406 -46.59375 39.859375 -40.0625 C 37.398438 -33.53125 35.207031 -27.148438 33.28125 -20.921875 C 31.351562 -14.691406 29.734375 -8.988281 28.421875 -3.8125 C 27.546875 -0.394531 26.664062 2.910156 25.78125 6.109375 C 24.90625 9.316406 24.117188 12.71875 23.421875 16.3125 L 20.921875 33.015625 C 20.660156 34.160156 20.394531 34.90625 20.125 35.25 C 19.863281 35.601562 19.25 36 18.28125 36.4375 C 16.613281 36.09375 15.757812 35.4375 15.71875 34.46875 C 15.675781 33.5 15.695312 32.179688 15.78125 30.515625 L 18.28125 5.78125 C 19.25 -5.351562 20.5 -16.335938 22.03125 -27.171875 C 23.570312 -38.003906 24.910156 -48.898438 26.046875 -59.859375 C 26.484375 -62.578125 26.851562 -65.335938 27.15625 -68.140625 C 27.46875 -70.953125 27.625 -73.71875 27.625 -76.4375 C 27.625 -77.84375 27.664062 -79.441406 27.75 -81.234375 C 27.84375 -83.035156 27.800781 -84.550781 27.625 -85.78125 C 27.363281 -87.269531 27.125 -88.5625 26.90625 -89.65625 C 26.6875 -90.75 26.398438 -91.910156 26.046875 -93.140625 C 24.640625 -93.054688 23.429688 -92.289062 22.421875 -90.84375 C 21.421875 -89.394531 20.566406 -88.054688 19.859375 -86.828125 C 16.179688 -81.304688 13.023438 -75.144531 10.390625 -68.34375 C 7.765625 -61.550781 5.96875 -54.773438 5 -48.015625 C 4.644531 -45.648438 4.421875 -42.929688 4.328125 -39.859375 C 4.242188 -36.796875 4.554688 -34.207031 5.265625 -32.09375 C 5.785156 -30.78125 6.394531 -29.96875 7.09375 -29.65625 C 7.800781 -29.351562 8.484375 -29.203125 9.140625 -29.203125 C 9.796875 -29.203125 10.273438 -29.023438 10.578125 -28.671875 C 10.890625 -28.328125 10.914062 -27.5 10.65625 -26.1875 C 9.519531 -25.914062 8.425781 -25.78125 7.375 -25.78125 C 5.96875 -25.78125 4.847656 -26.109375 4.015625 -26.765625 C 3.179688 -27.429688 2.410156 -28.421875 1.703125 -29.734375 C 0.566406 -32.273438 0 -35.054688 0 -38.078125 C 0 -41.109375 0.175781 -43.984375 0.53125 -46.703125 C 0.96875 -51.085938 1.820312 -55.425781 3.09375 -59.71875 C 4.363281 -64.019531 5.742188 -68.191406 7.234375 -72.234375 L 11.3125 -81.171875 C 11.75 -82.140625 12.472656 -83.585938 13.484375 -85.515625 C 14.492188 -87.441406 15.695312 -89.414062 17.09375 -91.4375 C 18.5 -93.457031 19.96875 -95.164062 21.5 -96.5625 C 23.039062 -97.96875 24.601562 -98.671875 26.1875 -98.671875 C 27.675781 -98.671875 28.988281 -97.925781 30.125 -96.4375 C 31.613281 -94.59375 32.597656 -92.398438 33.078125 -89.859375 C 33.566406 -87.316406 33.789062 -84.6875 33.75 -81.96875 C 33.707031 -79.25 33.6875 -76.703125 33.6875 -74.328125 C 33.6875 -72.140625 33.570312 -70.144531 33.34375 -68.34375 C 33.125 -66.550781 32.929688 -64.597656 32.765625 -62.484375 C 32.585938 -58.546875 32.234375 -54.664062 31.703125 -50.84375 C 31.179688 -47.03125 30.613281 -43.148438 30 -39.203125 L 28.015625 -22.234375 C 27.847656 -21.097656 27.675781 -20.113281 27.5 -19.28125 C 27.320312 -18.445312 27.234375 -17.5 27.234375 -16.4375 C 27.847656 -17.226562 28.285156 -18.191406 28.546875 -19.328125 C 28.804688 -20.472656 29.070312 -21.484375 29.34375 -22.359375 L 31.1875 -28.28125 C 33.457031 -35.820312 36.191406 -43.363281 39.390625 -50.90625 C 42.597656 -58.457031 46.046875 -65.648438 49.734375 -72.484375 C 51.128906 -74.765625 52.921875 -77.570312 55.109375 -80.90625 C 57.304688 -84.238281 59.742188 -87.523438 62.421875 -90.765625 C 65.097656 -94.015625 67.835938 -96.710938 70.640625 -98.859375 C 73.453125 -101.015625 76.175781 -102.09375 78.8125 -102.09375 C 80.914062 -102.09375 82.753906 -101.238281 84.328125 -99.53125 C 85.910156 -97.820312 87.007812 -95.210938 87.625 -91.703125 C 88.238281 -88.015625 88.171875 -84.109375 87.421875 -79.984375 C 86.679688 -75.867188 85.519531 -71.703125 83.9375 -67.484375 C 82.351562 -63.273438 80.570312 -59.21875 78.59375 -55.3125 C 76.625 -51.414062 74.675781 -47.890625 72.75 -44.734375 C 72.050781 -43.679688 71.085938 -42.253906 69.859375 -40.453125 C 68.628906 -38.660156 67.332031 -36.796875 65.96875 -34.859375 C 64.613281 -32.929688 63.390625 -31.175781 62.296875 -29.59375 C 61.203125 -28.019531 60.476562 -26.882812 60.125 -26.1875 Z M 35.265625 74.859375 C 37.191406 74.859375 39.160156 74.503906 41.171875 73.796875 C 43.191406 73.097656 44.859375 72.441406 46.171875 71.828125 C 51.171875 69.285156 55.515625 66.109375 59.203125 62.296875 C 62.890625 58.484375 66.132812 54.25 68.9375 49.59375 C 71.75 44.945312 74.25 40.171875 76.4375 35.265625 C 76.875 34.296875 77.421875 32.890625 78.078125 31.046875 C 78.734375 29.203125 79.390625 27.207031 80.046875 25.0625 C 80.710938 22.914062 81.265625 20.921875 81.703125 19.078125 C 82.140625 17.234375 82.359375 15.785156 82.359375 14.734375 L 52.234375 31.96875 L 40.65625 40.390625 C 39.164062 41.523438 37.410156 43.078125 35.390625 45.046875 C 33.367188 47.023438 31.742188 48.804688 30.515625 50.390625 C 27.015625 54.953125 25.019531 59.070312 24.53125 62.75 C 24.050781 66.4375 24.796875 69.375 26.765625 71.5625 C 28.742188 73.757812 31.578125 74.859375 35.265625 74.859375 Z M 35.265625 74.859375 "/></g></g></g><g fill="#122620" fill-opacity="1"><g transform="translate(143.551741, 106.656649)"><g><path d="M 6.578125 -3.03125 C 7.890625 -3.375 9.070312 -4.53125 10.125 -6.5 C 11.175781 -8.476562 11.921875 -10.738281 12.359375 -13.28125 C 12.804688 -15.832031 12.914062 -18.179688 12.6875 -20.328125 C 12.46875 -22.472656 11.789062 -23.941406 10.65625 -24.734375 C 10.394531 -23.765625 9.910156 -22.378906 9.203125 -20.578125 C 8.503906 -18.785156 7.828125 -16.816406 7.171875 -14.671875 C 6.515625 -12.523438 6.078125 -10.421875 5.859375 -8.359375 C 5.640625 -6.296875 5.878906 -4.519531 6.578125 -3.03125 Z M 0 -7.5 C 0 -8.632812 0.238281 -10.320312 0.71875 -12.5625 C 1.207031 -14.800781 1.890625 -17.210938 2.765625 -19.796875 C 3.640625 -22.390625 4.625 -24.847656 5.71875 -27.171875 C 6.820312 -29.492188 8.007812 -31.398438 9.28125 -32.890625 C 10.550781 -34.378906 11.84375 -35.125 13.15625 -35.125 C 14.03125 -35.125 14.644531 -34.726562 15 -33.9375 C 15.351562 -33.15625 15.441406 -32.5 15.265625 -31.96875 C 15.085938 -31.53125 14.753906 -31.09375 14.265625 -30.65625 C 13.785156 -30.21875 13.375 -29.734375 13.03125 -29.203125 C 13.195312 -28.585938 13.628906 -27.90625 14.328125 -27.15625 C 15.035156 -26.414062 15.738281 -25.429688 16.4375 -24.203125 C 17.144531 -22.972656 17.609375 -21.304688 17.828125 -19.203125 C 18.046875 -17.097656 17.804688 -14.335938 17.109375 -10.921875 C 16.140625 -6.359375 14.601562 -2.9375 12.5 -0.65625 C 10.394531 1.625 8.332031 2.765625 6.3125 2.765625 C 4.644531 2.765625 3.175781 1.90625 1.90625 0.1875 C 0.632812 -1.519531 0 -4.082031 0 -7.5 Z M 0 -7.5 "/></g></g></g><g fill="#122620" fill-opacity="1"><g transform="translate(166.705492, 106.656649)"><g><path d="M 6.578125 -3.03125 C 7.890625 -3.375 9.070312 -4.53125 10.125 -6.5 C 11.175781 -8.476562 11.921875 -10.738281 12.359375 -13.28125 C 12.804688 -15.832031 12.914062 -18.179688 12.6875 -20.328125 C 12.46875 -22.472656 11.789062 -23.941406 10.65625 -24.734375 C 10.394531 -23.765625 9.910156 -22.378906 9.203125 -20.578125 C 8.503906 -18.785156 7.828125 -16.816406 7.171875 -14.671875 C 6.515625 -12.523438 6.078125 -10.421875 5.859375 -8.359375 C 5.640625 -6.296875 5.878906 -4.519531 6.578125 -3.03125 Z M 0 -7.5 C 0 -8.632812 0.238281 -10.320312 0.71875 -12.5625 C 1.207031 -14.800781 1.890625 -17.210938 2.765625 -19.796875 C 3.640625 -22.390625 4.625 -24.847656 5.71875 -27.171875 C 6.820312 -29.492188 8.007812 -31.398438 9.28125 -32.890625 C 10.550781 -34.378906 11.84375 -35.125 13.15625 -35.125 C 14.03125 -35.125 14.644531 -34.726562 15 -33.9375 C 15.351562 -33.15625 15.441406 -32.5 15.265625 -31.96875 C 15.085938 -31.53125 14.753906 -31.09375 14.265625 -30.65625 C 13.785156 -30.21875 13.375 -29.734375 13.03125 -29.203125 C 13.195312 -28.585938 13.628906 -27.90625 14.328125 -27.15625 C 15.035156 -26.414062 15.738281 -25.429688 16.4375 -24.203125 C 17.144531 -22.972656 17.609375 -21.304688 17.828125 -19.203125 C 18.046875 -17.097656 17.804688 -14.335938 17.109375 -10.921875 C 16.140625 -6.359375 14.601562 -2.9375 12.5 -0.65625 C 10.394531 1.625 8.332031 2.765625 6.3125 2.765625 C 4.644531 2.765625 3.175781 1.90625 1.90625 0.1875 C 0.632812 -1.519531 0 -4.082031 0 -7.5 Z M 0 -7.5 "/></g></g></g><g fill="#122620" fill-opacity="1"><g transform="translate(189.859243, 106.656649)"><g><path d="M 0 -10 C 0 -16.3125 0.148438 -22.625 0.453125 -28.9375 C 0.765625 -35.257812 1.179688 -41.359375 1.703125 -47.234375 C 1.796875 -47.847656 1.972656 -49.296875 2.234375 -51.578125 C 2.492188 -53.859375 2.84375 -56.507812 3.28125 -59.53125 C 3.726562 -62.5625 4.253906 -65.519531 4.859375 -68.40625 C 5.472656 -71.300781 6.175781 -73.710938 6.96875 -75.640625 C 7.757812 -77.578125 8.59375 -78.546875 9.46875 -78.546875 C 11.226562 -78.546875 12.238281 -78.082031 12.5 -77.15625 C 12.757812 -76.238281 12.671875 -74.988281 12.234375 -73.40625 C 11.796875 -71.832031 11.398438 -70.035156 11.046875 -68.015625 C 9.910156 -61.523438 8.878906 -54.507812 7.953125 -46.96875 C 7.035156 -39.425781 6.332031 -31.925781 5.84375 -24.46875 C 5.363281 -17.007812 5.125 -10.171875 5.125 -3.953125 C 5.300781 -4.117188 5.828125 -5.054688 6.703125 -6.765625 C 7.585938 -8.484375 8.707031 -10.65625 10.0625 -13.28125 C 11.425781 -15.914062 12.894531 -18.703125 14.46875 -21.640625 C 16.050781 -24.578125 17.628906 -27.335938 19.203125 -29.921875 C 20.785156 -32.515625 22.210938 -34.617188 23.484375 -36.234375 C 24.753906 -37.859375 25.738281 -38.671875 26.4375 -38.671875 C 28.375 -38.671875 29.234375 -38.210938 29.015625 -37.296875 C 28.796875 -36.378906 28.070312 -35.128906 26.84375 -33.546875 C 25.613281 -31.972656 24.335938 -30.085938 23.015625 -27.890625 C 22.671875 -27.367188 22.34375 -26.863281 22.03125 -26.375 C 21.726562 -25.894531 21.398438 -25.390625 21.046875 -24.859375 C 20.253906 -23.546875 19.726562 -22.515625 19.46875 -21.765625 C 19.207031 -21.023438 19.097656 -20.101562 19.140625 -19 C 19.179688 -17.90625 19.335938 -16.085938 19.609375 -13.546875 C 19.773438 -11.703125 20.144531 -9.351562 20.71875 -6.5 C 21.289062 -3.65625 21.96875 -0.8125 22.75 2.03125 C 23.539062 4.882812 24.242188 7.191406 24.859375 8.953125 C 25.566406 10.617188 26.179688 11.84375 26.703125 12.625 C 27.234375 13.414062 27.585938 14.25 27.765625 15.125 C 27.410156 15.476562 27.054688 15.851562 26.703125 16.25 C 26.359375 16.644531 25.921875 16.84375 25.390625 16.84375 C 25.210938 16.84375 24.863281 16.753906 24.34375 16.578125 C 23.289062 16.046875 22.390625 15.125 21.640625 13.8125 C 20.898438 12.5 20.285156 11.097656 19.796875 9.609375 C 19.316406 8.117188 18.898438 6.84375 18.546875 5.78125 C 17.585938 2.894531 16.800781 -0.0546875 16.1875 -3.078125 C 15.570312 -6.109375 14.910156 -9.117188 14.203125 -12.109375 L 8.421875 0.53125 C 7.804688 2.457031 7.253906 4.453125 6.765625 6.515625 C 6.285156 8.578125 5.757812 10.304688 5.1875 11.703125 C 4.625 13.109375 3.90625 13.8125 3.03125 13.8125 C 1.882812 13.8125 1.15625 13.394531 0.84375 12.5625 C 0.539062 11.726562 0.410156 10.695312 0.453125 9.46875 C 0.503906 8.238281 0.484375 7.097656 0.390625 6.046875 C 0.304688 5.085938 0.21875 4.34375 0.125 3.8125 C 0.0390625 3.289062 0 2.414062 0 1.1875 Z M 0 -10 "/></g></g></g><g fill="#122620" fill-opacity="1"><g transform="translate(219.722318, 106.656649)"><g><path d="M 10.921875 0.53125 C 9.160156 0.53125 7.597656 -0.0351562 6.234375 -1.171875 C 4.878906 -2.316406 3.851562 -3.503906 3.15625 -4.734375 C 1.582031 -7.710938 0.679688 -11.238281 0.453125 -15.3125 C 0.234375 -19.394531 0.476562 -23.101562 1.1875 -26.4375 C 1.363281 -27.40625 1.601562 -28.566406 1.90625 -29.921875 C 2.21875 -31.285156 2.675781 -32.492188 3.28125 -33.546875 C 3.894531 -34.597656 4.644531 -35.125 5.53125 -35.125 C 7.539062 -35.125 8.523438 -34.441406 8.484375 -33.078125 C 8.441406 -31.722656 8.066406 -29.617188 7.359375 -26.765625 C 6.660156 -23.921875 6.3125 -20.257812 6.3125 -15.78125 C 6.3125 -14.46875 6.488281 -12.890625 6.84375 -11.046875 C 7.195312 -9.203125 7.742188 -7.578125 8.484375 -6.171875 C 9.234375 -4.773438 10.175781 -4.078125 11.3125 -4.078125 C 12.71875 -4.078125 14.316406 -4.691406 16.109375 -5.921875 C 17.910156 -7.148438 19.578125 -8.53125 21.109375 -10.0625 C 22.648438 -11.59375 23.726562 -12.753906 24.34375 -13.546875 C 24.519531 -13.722656 25 -14.316406 25.78125 -15.328125 C 26.570312 -16.335938 27.515625 -17.476562 28.609375 -18.75 C 29.710938 -20.019531 30.789062 -21.132812 31.84375 -22.09375 C 32.894531 -23.0625 33.726562 -23.546875 34.34375 -23.546875 C 34.957031 -23.546875 35.265625 -23.019531 35.265625 -21.96875 C 35.265625 -21.351562 34.847656 -20.410156 34.015625 -19.140625 C 33.179688 -17.867188 32.191406 -16.53125 31.046875 -15.125 C 29.910156 -13.726562 28.789062 -12.414062 27.6875 -11.1875 C 26.59375 -9.957031 25.785156 -9.078125 25.265625 -8.546875 C 24.210938 -7.492188 22.960938 -6.242188 21.515625 -4.796875 C 20.066406 -3.347656 18.460938 -2.097656 16.703125 -1.046875 C 14.953125 0.00390625 13.023438 0.53125 10.921875 0.53125 Z M 6.703125 -51.703125 C 6.703125 -53.191406 7.097656 -54.484375 7.890625 -55.578125 C 8.679688 -56.679688 9.5625 -57.234375 10.53125 -57.234375 C 11.582031 -57.234375 12.457031 -56.570312 13.15625 -55.25 C 14.382812 -52.800781 14.535156 -50.894531 13.609375 -49.53125 C 12.691406 -48.175781 11.578125 -47.5 10.265625 -47.5 C 9.390625 -47.5 8.578125 -47.847656 7.828125 -48.546875 C 7.078125 -49.242188 6.703125 -50.296875 6.703125 -51.703125 Z M 6.703125 -51.703125 "/></g></g></g><g fill="#122620" fill-opacity="1"><g transform="translate(249.716945, 106.656649)"><g><path d="M 1.578125 21.703125 C 1.578125 23.546875 2.144531 24.46875 3.28125 24.46875 C 3.894531 24.46875 4.550781 24.25 5.25 23.8125 C 5.957031 23.375 6.53125 22.976562 6.96875 22.625 C 8.726562 21.3125 10.285156 19.316406 11.640625 16.640625 C 13.003906 13.960938 13.992188 11.53125 14.609375 9.34375 C 15.046875 7.851562 15.285156 6.335938 15.328125 4.796875 C 15.367188 3.265625 15.390625 1.578125 15.390625 -0.265625 C 14.335938 0.347656 13.128906 1.421875 11.765625 2.953125 C 10.410156 4.492188 9.335938 5.742188 8.546875 6.703125 C 6.972656 8.640625 5.414062 10.96875 3.875 13.6875 C 2.34375 16.40625 1.578125 19.078125 1.578125 21.703125 Z M 0.390625 -21.3125 C 0.390625 -23.59375 1.003906 -25.628906 2.234375 -27.421875 C 3.460938 -29.222656 4.929688 -30.671875 6.640625 -31.765625 C 8.347656 -32.867188 9.816406 -33.421875 11.046875 -33.421875 C 12.015625 -33.421875 12.738281 -33.066406 13.21875 -32.359375 C 13.707031 -31.660156 13.726562 -30.476562 13.28125 -28.8125 C 12.226562 -28.550781 11.484375 -28.394531 11.046875 -28.34375 C 10.609375 -28.300781 10.257812 -28.171875 10 -27.953125 C 9.738281 -27.734375 9.253906 -27.226562 8.546875 -26.4375 C 6.796875 -24.507812 5.984375 -22.953125 6.109375 -21.765625 C 6.242188 -20.585938 6.945312 -19.492188 8.21875 -18.484375 C 9.488281 -17.472656 11.066406 -16.222656 12.953125 -14.734375 C 14.835938 -13.242188 16.613281 -11.226562 18.28125 -8.6875 C 20.21875 -10 22.191406 -11.53125 24.203125 -13.28125 L 36.4375 -21.84375 C 37.582031 -22.625 38.570312 -23.164062 39.40625 -23.46875 C 40.238281 -23.78125 40.960938 -23.9375 41.578125 -23.9375 C 42.628906 -23.9375 43.066406 -23.5 42.890625 -22.625 C 42.710938 -21.75 41.878906 -20.875 40.390625 -20 L 31.4375 -13.8125 C 31.09375 -13.632812 30.347656 -13.128906 29.203125 -12.296875 C 28.066406 -11.460938 26.816406 -10.539062 25.453125 -9.53125 C 24.097656 -8.53125 22.9375 -7.585938 21.96875 -6.703125 C 21.007812 -5.828125 20.484375 -5.257812 20.390625 -5 C 20.304688 -4.5625 20.4375 -3.726562 20.78125 -2.5 C 21.132812 -1.269531 21.375 0.328125 21.5 2.296875 C 21.632812 4.273438 21.375 6.6875 20.71875 9.53125 C 20.0625 12.382812 18.632812 15.695312 16.4375 19.46875 C 14.507812 22.71875 12.40625 25.109375 10.125 26.640625 C 7.84375 28.171875 5.695312 28.9375 3.6875 28.9375 C 1.84375 28.9375 0.332031 28.320312 -0.84375 27.09375 C -2.03125 25.875 -2.625 24.078125 -2.625 21.703125 C -2.625 18.722656 -1.898438 15.828125 -0.453125 13.015625 C 0.984375 10.210938 2.710938 7.625 4.734375 5.25 C 6.753906 2.882812 8.617188 0.847656 10.328125 -0.859375 C 12.035156 -2.566406 13.15625 -3.816406 13.6875 -4.609375 C 12.632812 -6.453125 11.359375 -8.050781 9.859375 -9.40625 C 8.367188 -10.769531 6.898438 -12.019531 5.453125 -13.15625 C 4.003906 -14.289062 2.796875 -15.492188 1.828125 -16.765625 C 0.867188 -18.046875 0.390625 -19.5625 0.390625 -21.3125 Z M 0.390625 -21.3125 "/></g></g></g><g fill="#122620" fill-opacity="1"><g transform="translate(287.736468, 106.656649)"><g><path d="M 6.96875 -10.65625 C 5.125 -10.65625 3.828125 -11.578125 3.078125 -13.421875 C 2.335938 -15.265625 2.007812 -17.546875 2.09375 -20.265625 C 2.1875 -22.984375 2.539062 -25.703125 3.15625 -28.421875 C 3.769531 -31.140625 4.535156 -33.414062 5.453125 -35.25 C 6.378906 -37.09375 7.320312 -38.015625 8.28125 -38.015625 C 9.945312 -38.015625 10.929688 -37.640625 11.234375 -36.890625 C 11.546875 -36.148438 11.484375 -34.988281 11.046875 -33.40625 C 10.609375 -31.832031 10.101562 -29.835938 9.53125 -27.421875 C 8.96875 -25.015625 8.6875 -22.144531 8.6875 -18.8125 C 8.863281 -18.988281 8.992188 -19.117188 9.078125 -19.203125 C 9.160156 -19.296875 9.25 -19.382812 9.34375 -19.46875 L 15.53125 -29.859375 C 16.050781 -30.742188 16.769531 -31.90625 17.6875 -33.34375 C 18.613281 -34.789062 19.625 -36.109375 20.71875 -37.296875 C 21.8125 -38.484375 22.882812 -39.078125 23.9375 -39.078125 C 25.957031 -39.078125 27.273438 -38.046875 27.890625 -35.984375 C 28.503906 -33.921875 28.8125 -31.835938 28.8125 -29.734375 C 29.78125 -29.910156 30.960938 -30.722656 32.359375 -32.171875 C 33.765625 -33.617188 35.035156 -34.867188 36.171875 -35.921875 C 36.785156 -36.617188 37.332031 -37.226562 37.8125 -37.75 C 38.300781 -38.28125 38.894531 -38.722656 39.59375 -39.078125 C 40.476562 -39.515625 41.269531 -39.734375 41.96875 -39.734375 C 42.84375 -39.734375 43.585938 -39.378906 44.203125 -38.671875 C 44.816406 -37.972656 45.164062 -36.679688 45.25 -34.796875 C 45.34375 -32.910156 45.300781 -30.738281 45.125 -28.28125 C 44.945312 -25.832031 44.75 -23.378906 44.53125 -20.921875 C 44.3125 -18.460938 44.203125 -16.3125 44.203125 -14.46875 C 44.203125 -10.4375 44.53125 -7.609375 45.1875 -5.984375 C 45.84375 -4.359375 46.742188 -3.546875 47.890625 -3.546875 C 49.203125 -3.546875 50.671875 -4.421875 52.296875 -6.171875 C 53.921875 -7.929688 55.539062 -9.992188 57.15625 -12.359375 C 58.78125 -14.734375 60.164062 -16.882812 61.3125 -18.8125 C 61.925781 -19.78125 62.515625 -20.742188 63.078125 -21.703125 C 63.648438 -22.671875 64.640625 -23.15625 66.046875 -23.15625 C 66.304688 -23.15625 66.585938 -22.976562 66.890625 -22.625 C 67.203125 -22.28125 67.359375 -21.882812 67.359375 -21.4375 C 67.359375 -20.914062 67.09375 -20.171875 66.5625 -19.203125 C 66.039062 -18.242188 65.492188 -17.300781 64.921875 -16.375 C 64.359375 -15.457031 63.898438 -14.734375 63.546875 -14.203125 C 63.191406 -13.585938 62.882812 -13.0625 62.625 -12.625 C 62.363281 -12.1875 62.015625 -11.617188 61.578125 -10.921875 C 61.222656 -10.390625 60.867188 -9.925781 60.515625 -9.53125 C 60.171875 -9.144531 59.773438 -8.597656 59.328125 -7.890625 C 57.660156 -5.429688 55.664062 -3.28125 53.34375 -1.4375 C 51.019531 0.394531 48.765625 1.3125 46.578125 1.3125 C 45.347656 1.3125 44.160156 0.914062 43.015625 0.125 C 41.878906 -0.65625 40.960938 -2.015625 40.265625 -3.953125 C 39.035156 -7.191406 38.441406 -10.609375 38.484375 -14.203125 C 38.523438 -17.804688 38.804688 -21.316406 39.328125 -24.734375 C 39.859375 -28.148438 40.125 -31.132812 40.125 -33.6875 C 39.25 -33.070312 38.175781 -32.0625 36.90625 -30.65625 C 35.632812 -29.25 34.335938 -27.953125 33.015625 -26.765625 C 31.703125 -25.585938 30.429688 -25 29.203125 -25 C 27.191406 -25 25.8125 -25.960938 25.0625 -27.890625 C 24.3125 -29.816406 23.9375 -31.75 23.9375 -33.6875 C 22.445312 -32.71875 21.019531 -31.003906 19.65625 -28.546875 C 18.300781 -26.085938 16.941406 -23.5 15.578125 -20.78125 C 14.222656 -18.0625 12.863281 -15.710938 11.5 -13.734375 C 10.144531 -11.765625 8.722656 -10.738281 7.234375 -10.65625 Z M 6.96875 -10.65625 "/></g></g></g></svg>